<svg id="design" xmlns="http://www.w3.org/2000/svg" viewBox="0 0 120 120"><defs><style>.cls-1{fill:#0a4f45;}</style></defs><title>Artboard 20</title><path class="cls-1" d="M89.55,104.33a79.28,79.28,0,0,1-12.26-3.77S73,98.2,74,95.84s6.23-2.66,12.33-2c7.72.8,14.54,6.75,14.54,6.75-6.13-17-5.66-17-11.31-34.9s-5.66-49-5.66-49L87.07,1.26,85.94.5,82,14.74,68.33,79.81a117.85,117.85,0,0,1,.47-38.19C72.57,21.81,82,14.74,82,14.74s-29.23,0-50.92,24.52-9.43,40.55-9.43,40.55c-5.19,8-2.83,9.43-2.83,9.43s9.6,8.83,12.26,12.26c11.38,14.71,5.66,13.67,9.43,14.62C49.84,118.45,80.12,121.3,91,118a14.84,14.84,0,0,0,10.85-13.67A30.11,30.11,0,0,1,89.55,104.33Zm-6.61-81.1c-2.82,40.08-11.31,67-11.31,67l-1.42-4.24Zm-33,63a86.81,86.81,0,0,0-20.28-6.92s5.29-.93,7.08-.94a29.61,29.61,0,0,1,14.07,3.77C55.52,85,61.73,87.35,74.46,99.61,74.46,99.61,59.49,90.79,49.94,86.26Z"/></svg>