<svg id="design" xmlns="http://www.w3.org/2000/svg" viewBox="0 0 120 120"><defs><style>.cls-1{fill:#0a4f45;}</style></defs><title>Artboard 21 copy 2</title><path class="cls-1" d="M60,9.38A50.62,50.62,0,1,0,110.62,60,50.68,50.68,0,0,0,60,9.38ZM30.71,55.1a1.64,1.64,0,0,0-1.06-.48c-1.44-.21-1.85-1-1.78-1.39s.4,0-1.62-.28a9.06,9.06,0,0,1-2.34-.58,2.57,2.57,0,0,1-1.07-.94,4.58,4.58,0,0,1-.4-1.42l-.09-.8a7.18,7.18,0,0,0-.44-1.65L21.25,46l-.33-.66a3.24,3.24,0,0,0-.82-1,2.14,2.14,0,0,1-.7-1.17v0a3.74,3.74,0,0,1-.17-1.68,14.57,14.57,0,0,1,2.11-3.62c1.13-1.57,1.79-2.45,2.19-3A2.11,2.11,0,0,0,24,33.66a7.35,7.35,0,0,1,0-1.24l.06-.52c.5-.63,1-1.25,1.55-1.87a1.66,1.66,0,0,1,1.3-.5c.44.07.62,0,.58-.27s.05-.24.31-.27a10.25,10.25,0,0,0,2.28-1.23A22.83,22.83,0,0,0,34,24.66a1.66,1.66,0,0,1,1.41-.47l.61.14a4.28,4.28,0,0,0,1.55,0c.38-.09.95-.34,1.19-.16a1.32,1.32,0,0,1,.35.42c.51.8,1,.24,1-.79,0-.4.09-.78.13-1.11s.31-1.24.74-1.42,1.3-.07,2.34,1.52c1.16,1.76,1.59,1.34,1.77.74a2.53,2.53,0,0,1,.86-1.25,6.68,6.68,0,0,0,.76-.64l.58-.5c.32-.28.16-.55.17-.89a.92.92,0,0,1,.31-.52,1.15,1.15,0,0,1,.7-.36,3,3,0,0,1,1.53.46,2.31,2.31,0,0,1,.63.51,3.24,3.24,0,0,0,.79.61c.42.24,1,.47,1.27.63s1,.44,1,.92a1.34,1.34,0,0,1-.37.75c-.88,1.06-.78.39-.69,1.15a3.32,3.32,0,0,1,0,.45.59.59,0,0,1-.49.42l-.27,0-.58.06a2.41,2.41,0,0,0-1.19.67c-.76.81-1.83,2.15-.79,2.35a9.65,9.65,0,0,0,1.22.17c.47,0,.88.19.91.41a1.43,1.43,0,0,0,.24.64c.1.13.4.13.68.17a.44.44,0,0,1,.36.32c.06.2.13.46.19.69A5,5,0,0,0,53.11,32a1.68,1.68,0,0,0,.33.37c.63.55,1.07,1.32.2,1.78l-1,.52c-.43.22-1,.5-1.16.63l-.38.25s-2,1.05-1.68,0c.15-.46,0-.75-.44-.74l-1,0a10.85,10.85,0,0,0-8.81,4.1c-.29.39-.67,1.06-.93,1.46A8.38,8.38,0,0,1,36,42.63a1.93,1.93,0,0,0-.8,1.26l0,.82-.14,1.4s-.13,1.24-.61.67c-.31-.37-.31-1.16-.42-1.62a.89.89,0,0,0-1.24-.69,16.36,16.36,0,0,1-2.44.48,4.82,4.82,0,0,0-1.64.45c-.88.55-2.13,1.87-1.7,4.81.07.59-.2,1.77,1,1.56.46-.08,1.15-.51,1.62-.57s2-.33,1.83.53c-.25,1.51.8,3.67.86,4.18s1.87.69,2,.58-.29,2-.92,1.42c-.37-.35-1.14-1-1.7-1.48A14.55,14.55,0,0,1,30.71,55.1Zm23.83,13c-.17.39-.46,1-.64,1.27a2.51,2.51,0,0,0-.2,1.4l.13.81A15.83,15.83,0,0,1,54,73.25a6,6,0,0,1-.11,1.25,3,3,0,0,1-.49.9,1.63,1.63,0,0,1-.84.49,1.58,1.58,0,0,0-.9.71,2.69,2.69,0,0,0-.42,1.3c0,.35,0,.64,0,.64l0,.54A1.59,1.59,0,0,1,51,80a1.09,1.09,0,0,0-.2.71c0,.19.06.33.06.33l0,.34a1.2,1.2,0,0,1-.25.7,3.53,3.53,0,0,0-.45.78,2.23,2.23,0,0,0-.12.88c0,.24-.29.6-.71.82a1.74,1.74,0,0,0-.85,1.18,6.67,6.67,0,0,0,0,1.55,3.59,3.59,0,0,0,.59,1.36,3.6,3.6,0,0,1,.57,1.29,2.45,2.45,0,0,0,.49,1.11,4.61,4.61,0,0,0,1.19.76l.06,0c.43.18.65.5.49.71a1.51,1.51,0,0,1-1.17.3l-.17,0a3,3,0,0,1-1.5-.66l-2-1.82a8.63,8.63,0,0,1-1.15-1.27,29.77,29.77,0,0,1-4.75-13,7.69,7.69,0,0,0-2.68-2.81l-.3-.18a6.21,6.21,0,0,1-1.44-.89,5.65,5.65,0,0,1-.86-1.49A6.78,6.78,0,0,0,35,69.26l-.37-.41a14.19,14.19,0,0,1-.95-1.22l-.39-.58s-.7-.9.74-4.52a5.48,5.48,0,0,0,.28-2.83c-.1-.47-.08-.94.2-1.11a3.68,3.68,0,0,0,.91-1.07c.42-.7,1.15-1.52,1.91-.74a1.77,1.77,0,0,0,1.31.69,15.59,15.59,0,0,0,1.6-.35,2.33,2.33,0,0,1,1.44.38,13.92,13.92,0,0,1,1.11.92,1.74,1.74,0,0,1,.51.72c0,.16.41.24.89.19l.22,0a1.51,1.51,0,0,1,1.12.22c.15.18.34.31.43.29s.26.13.38.31a7.16,7.16,0,0,1,.37.65l.15.32.38.68a2.4,2.4,0,0,0,1.19.94l.87.27c.45.14,1.2.33,1.67.42a6.71,6.71,0,0,1,1.62.54l1.17.59a2.14,2.14,0,0,1,1,1.09,4.44,4.44,0,0,1,.16,1.26A3.94,3.94,0,0,1,54.54,68.14ZM99.49,79.3l-3.42,5c-1.53,2.3-2.32,1.55-2.89.66a2,2,0,0,0-1.31-.88c-1-.06-1.57.45-2.9,1.65a5.45,5.45,0,0,1-1.41,1c-.87.32-1-.21-1-.74s.12-1.24.21-1.7a3.49,3.49,0,0,1,.49-1.21,7.81,7.81,0,0,0,.89-1.46,9.76,9.76,0,0,0,.56-2.38,4.3,4.3,0,0,1,.52-3.15c.22-.42.67-1,.92-1.45l1-1.61L92,71.9l.22-.28a4.06,4.06,0,0,1,.93-.56c.37-.2.81-.81,1.22-1a4.55,4.55,0,0,1,2.24-.34,3.31,3.31,0,0,1,1.64.45,1.34,1.34,0,0,1,.45,1,5,5,0,0,1-.14,1.67,2.54,2.54,0,0,0,.16,2.13c.25.41.76,1,1,1.4a2.9,2.9,0,0,1,.41,1.46A3.54,3.54,0,0,1,99.49,79.3Zm3.67-29.8a1.84,1.84,0,0,1,.37,1.42l-.13.44a4.83,4.83,0,0,0-.15,1.69l0,.35a1.44,1.44,0,0,1-.31,1.17.54.54,0,0,1-.75-.12,3.59,3.59,0,0,0-1-.74c-.34-.17-.6-.12-.57.12s-.1.43-.28.44-.5-.29-.69-.65a4.25,4.25,0,0,1-.4-1.12A10.23,10.23,0,0,0,99,51.23L98.64,50c-.14-.45-.87-.49-1.24-.79-.75-.61-1.16-.39-1.37,0a6.76,6.76,0,0,0-.45,1.67l-.23.94c-.12.46-.34,1.2-.45,1.67a9.29,9.29,0,0,0-.15,2.65,1.9,1.9,0,0,1-.14,1.22c-.28.38-1-.42-1.22-.83l-.84-1.32L91.49,53.4l-.53-1c-.23-.42-.64-1.08-.91-1.47l-.38-.54a5.64,5.64,0,0,0-1.2-1.19l-.79-.53a5.93,5.93,0,0,1-1.24-1.16c-.66-.83-1.83-2.25-2.94-3.38a1.76,1.76,0,0,0-2.3-.52,5.92,5.92,0,0,1-1,.63,2,2,0,0,1-1-.11,3.26,3.26,0,0,0-1.41-.37c-.6.05-.6.27-.43.5a7.91,7.91,0,0,0,1.33,1.11l.93.76s2.78,2.09,4.84,3.37c.41.25,1.12.54,1.54.77a1.43,1.43,0,0,1,.57.47c.25.41-.19,1-.26,1.34a3.24,3.24,0,0,1-.75,1.16l-1.34,1.31a.72.72,0,0,0,.07,1.12c1.46,1.15,1.58,1.8,1.54,2.51a5.07,5.07,0,0,1-.51,1.6.93.93,0,0,0,.1,1.13c.31.37.63,1,.4,1.43a.8.8,0,0,1-1,.39,3.47,3.47,0,0,0-.61-.23,1.27,1.27,0,0,0-1.14.61A5,5,0,0,0,82,66c0,.48.24,1.22.26,1.69s0,1.34,0,2.23a2.22,2.22,0,0,1-.66,1.43,3,3,0,0,0-.68,1A15.65,15.65,0,0,0,80.78,74a29.16,29.16,0,0,1-1.72,4.72c-1.14,2.58-3.13,1.9-4.18,1.28a2.61,2.61,0,0,1-1-1.31c-.14-.5-.34-1.31-.65-2.59a15.5,15.5,0,0,0-.53-1.63,10,10,0,0,1-.83-3.75c0-.47.13-1.24.18-1.71l.21-2.38a2.73,2.73,0,0,0-.47-1.53,3.12,3.12,0,0,1-.6-1.44c0-.42-.07-.82-.12-1.16A2.6,2.6,0,0,0,70.32,61a4.29,4.29,0,0,0-3.57-.66,13.57,13.57,0,0,0-1.61.6,1.9,1.9,0,0,1-2.56-.92l-.34-.72a3.25,3.25,0,0,0-.82-1.09,4.26,4.26,0,0,1-.89-1.12l-1.25-2.34-.81-1.49c-.17-.33-.4-.75-.71-1.33a8.47,8.47,0,0,1-.66-1.59c-1.34-5,.92-7.29,2.16-8.15a6.09,6.09,0,0,1,1.59-.64l.53-.13a4.81,4.81,0,0,1,1.35-.17,1.62,1.62,0,0,1,.91.48,2.32,2.32,0,0,0,.78.57,8,8,0,0,0,.92.26,2.37,2.37,0,0,0,1.08-.08,9.85,9.85,0,0,1,1.41-.27,11.7,11.7,0,0,0,2.27-.62,1.2,1.2,0,0,0,.74-1.19c-.18-1.17-.77-1.1-1.36-.94a3.65,3.65,0,0,1-1.56.21,1.53,1.53,0,0,1-.81-.71,2.5,2.5,0,0,1-.22-.67.46.46,0,0,0-.34-.39c-.17,0-.36.14-.41.39a2,2,0,0,0,.11,1c.11.31-.17.49-.51.15a6.18,6.18,0,0,1-.77-1A3.17,3.17,0,0,0,62.86,37a2.87,2.87,0,0,0-1.63.29,9.09,9.09,0,0,0-1,.64,6.27,6.27,0,0,0-1.1,1.31c-1.07,1.61-1.42,1.36-1.53.87s-.08-1.24-.15-1.72l-.24-1.66A5.11,5.11,0,0,1,57.3,35l.45-1.93.4-1.67A4.76,4.76,0,0,1,58.92,30a11.51,11.51,0,0,0,1.18-2,3.4,3.4,0,0,1,1.08-1.24l.37-.22a2.91,2.91,0,0,1,1.59-.35l1.61.18.72.1a6.23,6.23,0,0,0,1.28,0A4.32,4.32,0,0,0,68.07,26a10,10,0,0,0,2.32-1.6,4,4,0,0,1,3.72-.8,5.46,5.46,0,0,0,1.57.2l.74-.08,1.27-.14a3.09,3.09,0,0,1,1.38.16,1.63,1.63,0,0,0,1.28-.1l.24-.11a3.65,3.65,0,0,1,1.63-.28l1.17.15a9.88,9.88,0,0,0,1.72,0l.9-.1a2.42,2.42,0,0,1,1.54.42l-.69-.52h0a45.58,45.58,0,0,1,16.73,23.86,4.28,4.28,0,0,1,.09,1.08c0,.42-.55.77-.92,1.08S103,49.21,103.16,49.5Z"/></svg>