<svg id="design" xmlns="http://www.w3.org/2000/svg" viewBox="0 0 120 120"><defs><style>.cls-1,.cls-2{fill:#0a4f45;}.cls-2{fill-rule:evenodd;}</style></defs><title>Artboard 21 copy</title><path class="cls-1" d="M56.43,91.74c5.74-8.8,11.79-23.53,1.25-37.73C37.48,26.77,65,10.23,65.09,10.18l3.33,5.4c-.06,0-18.9,11.35-8.36,30.45h0l0,0a37.86,37.86,0,0,0,2.7,4.16C76.64,68.91,67.05,87.91,60,97.64c0,0-2.4-3.55-3.61-5.9Z"/><path class="cls-1" d="M50.54,31.36s1.5-8.48-8.45-9.83l.85-6.29c16.49,2.23,13.87,17.1,13.87,17.14l-6.27-1Z"/><path class="cls-1" d="M56.24,52a17.1,17.1,0,0,0-15.59-2.43q-1.36.45-2.58.72c-5,1.08-9,0-11.92-2a15.67,15.67,0,0,1-5.68-7.81,16.89,16.89,0,0,1-.5-1.83l6.21-1.32a9.85,9.85,0,0,0,.31,1.13A9.15,9.15,0,0,0,29.78,43c1.61,1.13,3.88,1.69,7,1a15.1,15.1,0,0,0,1.88-.52A23.81,23.81,0,0,1,60.22,47l-4,5Z"/><path class="cls-1" d="M48.63,48.7a4.67,4.67,0,0,1-1.71-.11,22.57,22.57,0,0,1-8.55-4.89A22,22,0,0,1,31,30.32a25.27,25.27,0,0,1,.5-9.35l6.19,1.42a19,19,0,0,0-.4,7A15.66,15.66,0,0,0,42.6,39a15.62,15.62,0,0,0,5.74,3.45s0,0,0,0L48,44l.67,4.67Zm-.3-6.29a3.74,3.74,0,0,1-.6,0L48,44l.37-1.62Z"/><path class="cls-1" d="M46.15,110.64S63.68,108,59.68,98.06A22.15,22.15,0,0,0,58,94.44c-.53-.88-1.06-1.8-1.58-2.77a.75.75,0,0,1-.07-.12C51,81.65,46.68,67.38,54.79,53.8a22.14,22.14,0,0,1,4,6.06C50.31,79.22,66,93.87,70,100c5.16,8,1.36,10.62,1.36,10.62Zm10-58.88c.33-.47.67-.94,1-1.41A43.18,43.18,0,0,0,60.06,46h0l3.84,5.79c-.54.8-1.11,1.6-1.72,2.38A28.41,28.41,0,0,0,60,57.55h0a18,18,0,0,0-3.86-5.79Zm5-7.68a27.86,27.86,0,0,0,2.65-7.57,18.15,18.15,0,0,0-2-11.85,11.84,11.84,0,0,1,4.39-4.87A23.06,23.06,0,0,1,70,37.62,36.33,36.33,0,0,1,64.89,50.3l-3.76-6.22Z"/><path class="cls-1" d="M63.73,37.4c0-.06,7.3-19.81,27.44-14.35L89.5,29.19C75,25.25,69.59,39.59,69.58,39.63L63.73,37.4Z"/><path class="cls-1" d="M63.52,70.87c0-.06,4-19.74,20.33-19.4,11.12.23,12.62-6.11,12.62-6.13l6.17,1.57S100,58.15,83.72,57.81c-11-.23-14,14.33-14,14.38l-6.22-1.32Z"/><path class="cls-1" d="M71.21,56.42S85.6,44.5,76.37,34.19l-.63-.67c.72-1.21,4.57-3.19,5.7-3.05,12.57,15.3-6.1,30.75-6.16,30.8l-4.07-4.85Z"/><path class="cls-1" d="M62.22,79.62c.2-4.17,3.11-7.94,7.1-10.29.5-.3,1-.57,1.55-.82-1.13,2-1.81,9.65-1.81,9.65h0a4.32,4.32,0,0,0-.5,1.74l-6.34-.28Zm10.91-12a17.55,17.55,0,0,1,3.19-.73,15.22,15.22,0,0,1,7.65.83c3.86,1.53,7.11,4.82,8.63,10.49l-6.14,1.62c-.92-3.44-2.72-5.36-4.83-6.19a8.83,8.83,0,0,0-4.46-.46,12.44,12.44,0,0,0-4.62,1.62l-.51.31a23.09,23.09,0,0,1,1.09-7.49Z"/><path class="cls-1" d="M77.92,66.76s15.09.93,18.56-9.25l6,2c-5,14.79-24.85,13.56-24.91,13.55l.33-6.34Z"/><path class="cls-1" d="M61.79,81.61a12.45,12.45,0,0,1,3.35-2.26A13.68,13.68,0,0,1,71.64,78a11.3,11.3,0,0,1,7.53,3.41,16.66,16.66,0,0,1,3.17,4.65L76.6,88.77a10.31,10.31,0,0,0-1.93-2.86,5.09,5.09,0,0,0-3.36-1.57,7.19,7.19,0,0,0-3.46.76,5.58,5.58,0,0,0-1.56,1l-4.5-4.5Z"/><path class="cls-1" d="M81.46,37.45C83,36,86.8,34.16,91,34.14a13.76,13.76,0,0,1,8.87,3l-4,4.93A7.44,7.44,0,0,0,91,40.48a8.12,8.12,0,0,0-5,1.47l-4.47-4.5Z"/><path class="cls-1" d="M48.61,72.58a12,12,0,0,0-9.38-4.5c-9.43-.22-11.07,4.08-11.08,4.1l-5.89-2.39s3.25-8.38,17.12-8.05A18.46,18.46,0,0,1,49,64.56a29.36,29.36,0,0,0-.43,8Zm2-6.91c4.91,3.92,5.65,10.82,5.66,10.85L51,76.87a2.69,2.69,0,0,0-.23-1c-1.06-3-.18-10.11-.17-10.18Z"/><path class="cls-1" d="M35,68.34s-13.85,1-17.64-15.51l6.19-1.42C26.13,62.63,34.6,62,34.62,62L35,68.34Z"/><path class="cls-1" d="M41,67.74a15,15,0,0,1-2.5-16c2.74-.78,6-2,8.07-1.27l-1.06.89-.77,1.22C42.07,58.73,46,64.22,46,64.24l-5,3.5Z"/><path class="cls-1" d="M55.51,89.68s-6.61-7.18-13.3-1l-4.32-4.65C49.25,73.5,60.11,85.3,60.14,85.33l-4.63,4.35Z"/><path class="cls-1" d="M48,86.08l-.37,0c-2,.18-5.11-1.26-7.71-3.91a19.22,19.22,0,0,1-5.22-10c-.06-.38-.12-1.37-.17-1.89,1.79-.93,4.44-.88,6.28-.66,0,.22.1,1.14.16,1.48a12.77,12.77,0,0,0,3.48,6.6,7.55,7.55,0,0,0,2.6,2h-.14l.31,1.81-.16-1.82s0,0,0,0h0l.16,1.82L48,86.08Z"/><path class="cls-2" d="M47.19,38.24A12.93,12.93,0,0,1,41.9,24.52a13,13,0,0,1,5.29,13.72Z"/><path class="cls-2" d="M69.77,51.74a11.27,11.27,0,0,0,5.46-11.61,11.29,11.29,0,0,0-5.46,11.61Z"/><path class="cls-2" d="M73,21.89a10.72,10.72,0,0,1,9.78-7.27A10.75,10.75,0,0,1,73,21.89Z"/><path class="cls-2" d="M33.87,58.26a8,8,0,0,0-6.89-6,8,8,0,0,0,6.89,6Z"/><path class="cls-2" d="M78,64.12a8.33,8.33,0,0,1,3.72-3.06,8.42,8.42,0,0,1,5.15-.44A8.39,8.39,0,0,1,78,64.12Z"/><path class="cls-2" d="M31.12,41.16A6.75,6.75,0,0,1,28.61,34a6.7,6.7,0,0,1,2.51,7.21Z"/><path class="cls-2" d="M60.26,39.34a7.68,7.68,0,0,0-.18-8.69,7.63,7.63,0,0,0,.18,8.69Z"/><path class="cls-2" d="M54.75,16a6,6,0,0,1,1.77-6.62A6,6,0,0,1,54.75,16Z"/><path class="cls-2" d="M88.89,48.68a6.22,6.22,0,0,1,1.7-3.12A6.12,6.12,0,0,1,94,43.83,6.2,6.2,0,0,1,92.3,47a6.11,6.11,0,0,1-3.41,1.73Z"/><path class="cls-2" d="M48,60.34a6.79,6.79,0,0,0,.67-7.69A6.79,6.79,0,0,0,48,60.34Z"/><path class="cls-2" d="M77.08,76.11A5.69,5.69,0,0,0,82.87,79a5.69,5.69,0,0,0-5.79-2.89Z"/><path class="cls-2" d="M44.14,72.87a5.67,5.67,0,0,0,1.57,2.88,5.79,5.79,0,0,0,3.16,1.59,5.75,5.75,0,0,0-4.73-4.47Z"/><path class="cls-2" d="M28.19,76.6a8.44,8.44,0,0,0,7,6.58,8.47,8.47,0,0,0-7-6.58Z"/></svg>