<svg id="design" xmlns="http://www.w3.org/2000/svg" viewBox="0 0 120 120"><defs><style>.cls-1{fill:#0a4f45;}</style></defs><title>Artboard 21</title><path class="cls-1" d="M59.22,36.83C58.32,27.5,62.67,15,62.67,15,49.83,19.74,44,30.59,41.32,39.47c1.19,1,2.42,2.05,3.73,3.21A48.88,48.88,0,0,1,59.22,36.83Z"/><path class="cls-1" d="M73.58,75.53c37.59-8.42,33.25-50,32.42-52.47,0,0-23.83,12.42-45.66,18C53.05,43,48.08,45.58,44.72,48.36c-2.29-2.14-4.59-4.18-6.91-6.06-5.37-4.35-9.67-6-13.1-6-9.69,0-12.43,12.77-12.43,12.77h0s9.33,0,8.62,8C18.9,80,32.51,92.32,44.2,94.23a68.07,68.07,0,0,0,11,1.07,40,40,0,0,0,9.69-1.19,27.66,27.66,0,0,1,6.38-.75A27.15,27.15,0,0,1,84.94,97l13.68,8,9.1-13.57C94.37,89.59,83.39,83.36,73.58,75.53Z"/></svg>